<?xml version="1.0" standalone="no"?>
<!DOCTYPE svg PUBLIC "-//W3C//DTD SVG 20010904//EN"
 "http://www.w3.org/TR/2001/REC-SVG-20010904/DTD/svg10.dtd">
<svg version="1.0" xmlns="http://www.w3.org/2000/svg"
 width="136.000000pt" height="136.000000pt" viewBox="0 0 136.000000 136.000000"
 preserveAspectRatio="xMidYMid meet">
<metadata>
Created by potrace 1.14, written by Peter Selinger 2001-2017
</metadata>
<g transform="translate(0.000000,136.000000) scale(0.100000,-0.100000)"
fill="#000000" stroke="none">
<path d="M555 1263 c-37 -12 -103 -17 -249 -20 -123 -2 -205 -8 -213 -15 -19
-15 -19 -761 0 -776 7 -6 35 -12 62 -14 48 -3 50 -4 51 -33 1 -40 -6 -57 -21
-51 -14 5 -72 -53 -92 -92 -17 -31 -16 -54 1 -77 8 -12 11 -28 7 -40 -4 -11
-6 -26 -5 -32 1 -7 2 -17 3 -23 1 -14 1047 -14 1056 0 4 7 12 7 25 0 10 -5 27
-10 37 -10 19 0 63 59 63 84 0 36 -68 121 -105 130 -18 5 -20 13 -20 73 l0 68
50 3 c27 2 55 8 62 14 18 15 19 758 1 776 -8 8 -68 12 -202 12 -151 0 -200 4
-236 17 -64 23 -212 26 -275 6z"/>
</g>
</svg>
